<svg width="49" height="49" viewBox="0 0 49 49" fill="none" xmlns="http://www.w3.org/2000/svg">
<path d="M13.15 0.130538C13.121 0.171797 12.8405 0.240564 12.5214 0.281823C9.93896 0.625655 7.62737 3.40381 7.60803 6.20948C7.60803 6.69084 7.56934 7.06218 7.54032 7.03467C7.40491 6.91089 6.19592 6.78711 5.12234 6.77336C4.03908 6.75961 3.18795 6.97966 3.18795 7.26848C3.18795 7.33724 3.14927 7.36475 3.10091 7.32349C3.05255 7.28223 2.82042 7.48853 2.58829 7.7911C1.47602 9.18018 1.38897 11.697 2.38518 13.5537C2.53993 13.8288 2.59797 14.0488 2.53993 14.0763C2.00798 14.3376 1.15685 15.5342 0.779643 16.5519C0.392766 17.6247 0.460469 19.3713 0.96341 20.9117C1.10849 21.3656 1.30193 22.1082 1.38897 22.5346C1.71782 24.1712 2.64633 25.6153 3.98105 26.578L4.62907 27.0457L4.33891 27.6645C3.74893 28.9161 3.47811 30.6215 3.67155 31.9556C3.86499 33.2621 4.22285 34.1836 4.97726 35.2426C5.53823 36.054 5.83806 36.3566 6.63116 36.893C7.53065 37.5119 7.63704 37.6219 7.93687 38.3096C8.12064 38.7222 8.4785 39.286 8.72997 39.5749C10.3355 41.3903 12.8986 40.4826 13.8851 37.7594C13.9915 37.4844 14.2913 37.003 14.5621 36.7004L15.0457 36.1503L15.0651 37.3193C15.0941 38.901 15.4133 41.0602 15.8098 42.2292C16.5255 44.4023 17.9763 46.1214 20.0655 47.2492C22.0966 48.3632 24.1567 48.3907 26.4393 47.3042C27.3968 46.8641 30.5498 44.6361 31.5847 43.6733C33.1129 42.2568 34.4186 40.015 35.1537 37.5394C35.5115 36.3153 35.9758 34.0186 35.9758 33.4272C35.9758 33.1108 35.9758 33.1108 36.4207 33.5372C37.9102 34.9675 40.4636 35.5314 42.6011 34.8988C46.0636 33.881 48.7234 30.3739 48.5203 27.1007C48.3752 24.9001 47.408 23.0847 45.7251 21.8744L45.2608 21.5444V20.7192C45.2608 18.4911 44.4677 16.1668 43.2878 14.9153C42.9879 14.5852 42.7945 14.2414 42.6398 13.705C42.2625 12.4122 41.305 11.2982 40.1541 10.8031C39.8349 10.6793 39.7575 10.583 39.8059 10.418C40.2218 9.04265 40.2508 7.77735 39.9026 6.53955C39.7672 6.0857 39.5447 5.52181 39.4093 5.27425C39.0708 4.69662 38.2777 3.80266 38.181 3.88518C38.1423 3.92644 38.1036 3.89893 38.1036 3.83016C38.1036 3.69263 36.8076 2.81242 36.2176 2.56486C36.0048 2.46859 35.7727 2.33106 35.7147 2.24854C35.6469 2.17977 35.5889 2.16602 35.5889 2.20728C35.5889 2.26229 35.5212 2.22103 35.4438 2.11101C35.2988 1.89095 34.2445 1.29956 33.6062 1.06576C32.0877 0.515629 29.4182 0.419356 27.3678 0.845707C26.1394 1.10702 26.1878 1.10702 25.1916 0.955733C24.3695 0.845707 24.176 0.845707 22.967 0.90072C22.5415 0.928226 21.7677 0.914473 21.2454 0.873213C20.2299 0.790694 19.4175 0.983239 18.7791 1.45085C18.5566 1.61589 18.3632 1.6709 18.2762 1.60214C18.1988 1.54712 17.8506 1.49211 17.5024 1.49211C16.8447 1.49211 16.4385 1.36833 16.4385 1.18954C16.4385 1.09327 16.2451 0.955733 15.9549 0.845707C15.9259 0.831953 15.7518 0.721927 15.5584 0.598148C15.3746 0.488122 15.0264 0.35059 14.7846 0.30933C13.6917 0.116784 13.1984 0.0617712 13.15 0.130538ZM13.8658 3.54134C14.6879 3.73389 15.3649 4.28402 15.6357 4.97168C15.7615 5.27425 15.8582 5.59058 15.8582 5.6731C15.8582 5.75562 15.6454 6.01693 15.3746 6.25074C15.1134 6.48454 14.891 6.7321 14.891 6.81462C14.891 6.88338 14.8233 6.97966 14.7459 7.02092C14.6395 7.07593 14.3977 6.81462 14.0012 6.20948C13.682 5.71436 13.3532 5.31551 13.2854 5.31551C13.2081 5.31551 13.15 5.24675 13.15 5.16423C13.15 4.88916 12.0281 4.27027 11.4381 4.22901C11.1383 4.2015 11.3607 3.92644 11.825 3.74764C12.7632 3.36255 13.0727 3.33505 13.8658 3.54134ZM21.729 4.02271L21.9322 4.10523L21.7484 4.66911C21.6517 4.98544 21.5646 5.39803 21.5646 5.59058C21.5646 5.79688 21.4486 6.20948 21.3035 6.51205L21.0423 7.08968L20.6845 6.62207C20.4814 6.37451 20.1428 6.01693 19.9301 5.83814C19.6012 5.57683 19.5335 5.45305 19.5335 5.08171C19.5335 4.65536 19.5625 4.62785 20.0461 4.42155C21.1294 3.98145 21.4292 3.91268 21.729 4.02271ZM32.3101 5.0542C32.6196 5.6731 32.8034 6.66333 32.726 7.33724C32.697 7.66732 32.6583 7.92863 32.6487 7.92863C32.639 7.92863 32.4165 7.65357 32.1651 7.30974C31.9039 6.9659 31.6331 6.69084 31.5654 6.69084C31.488 6.69084 31.43 6.63583 31.43 6.56706C31.43 6.49829 31.3526 6.40202 31.2559 6.36076C31.1592 6.30575 30.9851 6.00318 30.869 5.65935L30.6562 5.0267L30.8787 4.91667C31.6428 4.50407 32.049 4.54533 32.3101 5.0542ZM34.1381 5.27425C34.7475 5.89315 35.173 6.85588 35.0763 7.39226C35.0279 7.68107 34.9602 7.73609 34.6991 7.73609C34.525 7.73609 34.1478 7.77735 33.8673 7.83236L33.3547 7.92863L33.4321 7.40601C33.4708 7.13094 33.4998 6.41577 33.4998 5.82438C33.4901 5.24675 33.5191 4.76538 33.5481 4.76538C33.5868 4.76538 33.8576 4.99919 34.1381 5.27425ZM7.54032 10.0466L7.6854 10.9131L7.41459 11.0644C7.26951 11.1469 7.12443 11.2157 7.10508 11.2157C6.98902 11.2294 6.42805 11.6833 6.37002 11.7933C6.21527 12.1509 4.62907 10.473 4.78382 10.1154C4.97726 9.6753 6.05084 9.22144 6.96001 9.18018L7.39524 9.16642L7.54032 10.0466ZM40.9859 15.3554C41.2083 15.4792 41.2954 15.6029 41.2954 15.823C41.2954 16.3181 40.8504 17.4459 40.4055 18.0648L39.9896 18.6562L39.4093 18.3261C39.0902 18.1335 38.7033 17.9548 38.5389 17.9135C38.1907 17.831 37.9779 17.7622 37.533 17.5697C37.3492 17.4871 37.1654 17.4596 37.1268 17.5009C36.9527 17.6522 37.0494 17.2258 37.2815 16.7857C37.591 16.2081 38.2971 15.5067 38.8193 15.2729C39.2739 15.0528 40.4926 15.1078 40.9859 15.3554ZM43.6166 18.4499C43.781 18.9037 43.9358 19.6326 43.9648 20.0728L44.0325 20.8704L43.6553 20.8017C42.2722 20.5129 41.7403 20.3066 41.5662 19.9765C41.5372 19.9077 41.7112 19.4676 41.9724 18.9862C42.2239 18.5186 42.514 17.8447 42.6011 17.5009L42.7752 16.8545L43.0556 17.2396C43.2104 17.4459 43.4619 17.996 43.6166 18.4499ZM32.5036 23.0985C32.639 23.5936 32.8518 24.2262 32.9678 24.5013C33.0839 24.7901 33.1516 25.0514 33.1226 25.0927C33.0936 25.1477 33.0355 25.1202 32.9968 25.0377C32.9291 24.8864 31.9716 24.1437 31.8652 24.1575C31.8362 24.1575 31.6621 24.0612 31.4687 23.9512C31.2752 23.8411 31.0528 23.7449 30.9754 23.7449C30.8013 23.7449 30.8013 23.7449 31.2656 22.6859L31.6428 21.8469L31.9426 22.0257C32.1844 22.1632 32.3005 22.3833 32.5036 23.0985ZM41.0729 24.24C41.334 24.3363 41.4888 25.0102 41.4888 26.0417C41.4888 26.6881 41.4598 26.7843 41.2276 26.9631C40.5409 27.4582 39.5254 27.6783 39.2643 27.3757C39.1869 27.2795 38.887 26.9356 38.6162 26.6331C38.3357 26.3167 38.1036 25.9729 38.1036 25.8766C38.1036 25.5328 38.5872 24.8726 39.0031 24.6388C39.6801 24.2812 40.6667 24.0887 41.0729 24.24ZM22.3577 27.1969C22.5512 27.3482 22.5512 27.3482 22.3577 27.637C21.5356 28.9161 21.6807 31.1441 22.6479 32.1344C23.5667 33.0833 24.7757 32.932 25.5495 31.763C26.1104 30.9241 26.2652 29.5487 25.9267 28.4622C25.7235 27.8296 25.7429 27.7333 26.1008 27.7333C26.2362 27.7333 26.5747 27.6508 26.8455 27.5408L27.3388 27.362L27.7353 28.0909C28.422 29.3424 29.544 30.3602 30.8787 30.9516C31.3429 31.1579 30.7336 34.5962 29.8728 36.6179C29.4086 37.7182 28.6155 38.901 28.1028 39.2998C27.861 39.4786 27.6579 39.6849 27.6579 39.7399C27.6579 39.8087 27.6192 39.8087 27.5612 39.7674C27.5129 39.7262 27.4645 39.7399 27.4645 39.8087C27.4645 39.8774 27.4065 39.9325 27.3484 39.9325C27.2807 39.9462 26.9229 40.1112 26.5457 40.3175C26.1781 40.5238 25.4914 40.8264 25.0368 41.0052L24.2051 41.3215V40.5376C24.1954 39.5749 23.9342 38.7772 23.4506 38.227C23.2669 38.0207 23.0831 37.842 23.0444 37.842C22.9961 37.842 22.909 37.7869 22.8413 37.7182C22.5898 37.4981 21.6227 37.5256 21.2261 37.7732C20.7232 38.0758 20.2492 38.7772 20.0558 39.5061C19.8624 40.2075 19.727 40.18 19.224 39.3411C18.7017 38.4609 18.4503 37.2231 18.3922 35.3114C18.3535 33.826 18.3632 33.7435 18.5276 33.8535C18.8371 34.0598 19.7463 34.1011 20.1332 33.936C20.965 33.5784 21.5549 32.3819 21.5646 31.0616C21.5646 30.2364 21.4195 29.645 21.052 29.0261C20.9069 28.7786 20.7909 28.5585 20.7909 28.5173C20.7909 28.4072 21.9805 27.0457 22.0772 27.0457C22.1256 27.0457 22.2417 27.1144 22.3577 27.1969ZM9.41668 29.5075C10.055 29.9476 10.1517 30.0576 9.97765 30.1264C9.86158 30.1814 9.76487 30.2777 9.76487 30.3464C9.76487 30.4152 9.68749 30.4977 9.59077 30.539C9.34897 30.649 9.02013 31.5292 8.86538 32.4644L8.74931 33.2346L8.13031 32.7257C7.48229 32.1756 7.11476 31.6117 7.01804 31.0341C6.94066 30.6215 7.22115 29.9201 7.58868 29.5763C7.80146 29.3837 8.46883 28.9849 8.60423 28.9849C8.63325 28.9849 9.00078 29.2187 9.41668 29.5075ZM10.5193 38.007C11.1093 37.9795 11.6025 37.9795 11.6025 38.0345C11.6025 38.172 10.8384 38.7497 10.3839 38.9422C9.91962 39.1348 9.57143 39.066 8.8557 38.6259C8.53653 38.4333 8.02392 37.8695 8.02392 37.7182C8.02392 37.6907 8.34309 37.7594 8.72997 37.8695C9.18455 38.007 9.79388 38.0483 10.5193 38.007Z" fill="#3F3D56"/>
</svg>
