<svg width="49" height="49" viewBox="0 0 49 49" fill="none" xmlns="http://www.w3.org/2000/svg">
<path d="M26.3942 0.0385523C26.3712 0.0621046 26.0157 0.109209 25.6143 0.144538C25.2129 0.191643 24.8345 0.250524 24.7886 0.285852C24.7313 0.309405 24.5707 0.356509 24.4331 0.380062C24.2955 0.403614 24.0087 0.450719 23.7908 0.486047C23.5729 0.521376 23.2174 0.603809 22.9881 0.674467C22.4949 0.839333 22.3802 0.874662 22.2311 0.90999C21.0728 1.23972 18.2745 2.51155 18.2745 2.71175C18.2745 2.7824 18.2401 2.80596 18.2057 2.75885C18.0681 2.61754 14.3179 5.19652 13.3431 6.10329C13.1482 6.29171 12.9417 6.4448 12.8729 6.4448C12.8156 6.4448 12.7124 6.55079 12.6321 6.68032C12.5518 6.80986 12.4257 6.91585 12.3568 6.91585C12.0931 6.91585 8.98513 10.3427 7.82682 11.9207C4.90238 15.8775 3.25093 19.1042 2.10409 23.0492C1.64535 24.6626 0.854033 28.584 0.739349 29.9383C0.532917 32.1051 1.01459 34.7312 2.10409 37.4515C3.37708 40.6311 4.66154 42.2915 7.45983 44.3995C8.35437 45.0707 10.3728 46.1188 11.5311 46.531C15.0634 47.7675 20.637 48.3209 24.9836 47.8499C28.5388 47.4613 32.8394 46.4132 35.6033 45.2473C39.881 43.4456 42.06 41.7851 44.4454 38.476C44.9845 37.7341 45.7184 36.6507 46.0854 36.0855C48.6199 32.0816 49.3998 26.3466 48.0121 21.8127C47.3125 19.5164 46.3263 17.6322 43.7115 13.6047C40.2021 8.21123 37.8511 5.4085 34.8579 3.10036C34.3074 2.66464 33.7913 2.32313 33.6995 2.32313C33.6078 2.32313 33.5275 2.26425 33.5275 2.1936C33.5275 2.13471 33.4816 2.11116 33.4128 2.14649C33.3555 2.18182 33.2982 2.15827 33.2982 2.08761C33.2982 2.01695 33.2523 1.9934 33.1835 2.02873C33.1261 2.06406 33.0688 2.0405 33.0688 1.98162C33.0688 1.91097 33.0344 1.86386 32.9885 1.87564C32.9312 1.88741 32.7247 1.80498 32.5298 1.699C32.3233 1.58123 32.1513 1.52235 32.1513 1.55768C32.1513 1.59301 32.0366 1.5459 31.899 1.4517C31.6352 1.28683 30.8898 1.03953 30.3164 0.945319C30.1558 0.921767 29.9035 0.874662 29.7429 0.839333C29.5824 0.804005 28.9975 0.745124 28.4241 0.709795C27.8621 0.674467 27.3805 0.639138 27.3575 0.615586C27.3346 0.592033 27.7474 0.474271 28.275 0.344733C28.9172 0.179867 29.1122 0.0974332 28.8828 0.085657C28.0227 0.0267761 26.4286 -0.00855249 26.3942 0.0385523ZM27.7589 2.14649C29.6971 2.65287 31.9334 4.05423 33.7225 5.87954C34.5597 6.72743 34.6744 6.89229 34.6056 7.15137C34.5711 7.31624 34.445 7.89327 34.3303 8.44675C34.1468 9.37707 34.1239 9.4124 34.0436 9.04734C33.9289 8.51741 33.8372 8.70583 33.5849 9.97766C33.4358 10.7078 33.4014 11.3672 33.4358 12.4742L33.4816 13.9816L32.977 13.1926C32.5068 12.4389 31.4288 10.2485 29.8806 6.89229C29.5021 6.06796 29.0204 5.13764 28.814 4.83146C28.2865 4.05423 27.564 3.26523 27.3805 3.26523C27.2887 3.26523 27.2199 3.20635 27.2199 3.13569C27.2199 2.97082 26.0616 2.4409 25.4767 2.35846C25.2015 2.31136 24.7771 2.2878 24.5248 2.2878L24.0661 2.29958L24.5822 2.01695C25.0409 1.76965 25.19 1.7461 25.901 1.80498C26.3483 1.84031 27.174 2.00518 27.7589 2.14649ZM21.371 4.36041C21.2563 4.56061 20.9467 5.36139 20.6829 6.12684C19.8801 8.51741 19.0085 9.89522 15.5107 14.3113C14.5014 15.5831 12.9417 17.6204 12.0587 18.8334C10.7054 20.6822 10.3957 21.0473 10.1434 21.0591C9.8682 21.0708 9.8682 21.0708 10.0976 21.1415C10.3269 21.2239 10.2811 21.3064 9.46681 22.3427C8.48052 23.6027 6.90935 25.322 6.82907 25.2396C6.76026 25.1572 7.0011 24.1444 7.40249 22.8137C8.07913 20.588 9.27184 18.3034 11.7375 14.5115C13.3087 12.0974 14.123 11.0611 15.7515 9.38885C17.2883 7.82261 21.4054 3.9718 21.566 3.9718C21.5774 3.9718 21.4972 4.14844 21.371 4.36041ZM36.4749 9.10622C37.3236 10.2956 38.069 11.5674 39.1241 13.6283C42.3353 19.9639 43.4362 23.5085 43.1495 26.6881C42.966 28.7136 42.1747 31.3868 41.3375 32.7764C40.7411 33.7656 38.9177 35.9206 38.1378 36.5683L37.6676 36.9451L37.8167 36.5683C38.069 35.9559 38.1493 34.9432 38.0002 34.1424C37.9314 33.742 37.5529 32.5291 37.1515 31.4457C36.1308 28.6665 35.7983 27.5948 35.0414 24.6037L34.3647 21.9894H34.8579C35.6836 21.9894 37.6561 21.7303 37.5988 21.6243C37.4612 21.4006 35.3969 21.1062 33.1261 20.9884C30.2705 20.8353 29.376 20.8 28.5388 20.7529C28.0342 20.7293 26.8185 20.6704 25.8437 20.6233C24.8689 20.5762 22.5637 20.5409 20.7173 20.5409H17.3685L17.3112 20.2347C17.2768 20.0699 17.185 19.5399 17.1277 19.0571C16.9901 18.0679 16.8983 17.8442 16.8983 18.5154C16.8983 18.7627 16.841 19.3044 16.7722 19.7283C16.669 20.3289 16.669 20.5056 16.7836 20.5762C16.8754 20.6351 16.7492 20.6704 16.4855 20.6587C16.2446 20.6587 15.5221 20.694 14.8914 20.7411C13.0794 20.8824 12.7582 20.8942 12.85 20.8118C14.0427 19.7754 16.841 16.9138 18.9168 14.6293C21.6348 11.6145 23.5041 9.68325 24.2725 9.09444L24.7083 8.76471L25.1212 9.1651C25.3505 9.38885 26.2221 10.4605 27.0823 11.5674C29.6856 14.9354 32.3463 17.432 36.1079 20.0227C37.6676 21.0944 40.1219 22.4604 40.5003 22.4604C40.5806 22.4604 39.8925 21.7067 38.9635 20.7764C37.4382 19.2573 36.3143 17.9972 35.2593 16.5959L34.8808 16.0895L35.1331 14.7706C35.546 12.5566 35.5574 10.4016 35.1675 7.79906L35.0987 7.32801L35.4886 7.81084C35.7065 8.06991 36.1538 8.65872 36.4749 9.10622ZM14.3868 21.695C15.4763 21.8598 16.3708 22.0011 16.3823 22.0247C16.4281 22.0718 15.8891 26.4054 15.7056 27.4653C15.3386 29.6321 15.2813 30.2445 15.1551 33.2945C14.9602 37.8755 14.9602 38.0874 15.3386 38.8647C15.74 39.7125 16.7034 40.6193 17.4947 40.9137C18.6989 41.3377 19.8686 41.2081 24.4216 40.1365C26.7612 39.583 30.0411 39.2179 33.0344 39.1591L34.5482 39.1237L33.9519 39.5006C33.6193 39.7008 33.2867 39.9245 33.2179 39.9952C33.1376 40.0658 33.0344 40.1365 32.9885 40.1365C32.9312 40.1483 32.4036 40.4073 31.8073 40.7135C30.282 41.4907 27.9539 42.2326 26.4171 42.4328C26.1304 42.4682 25.6717 42.5388 25.385 42.5977C24.9147 42.6919 20.8893 42.6566 19.6508 42.5388C18.1484 42.4093 17.1506 42.268 16.0955 42.056C15.935 42.0207 15.7286 41.9736 15.6368 41.9618C14.7537 41.7851 13.217 41.2905 12.5403 40.9726C12.1963 40.8077 11.8752 40.69 11.8293 40.69C11.772 40.7017 11.7375 40.6664 11.7375 40.6193C11.7375 40.5604 11.5541 40.4191 11.3247 40.2896C10.4531 39.8185 8.85898 38.2405 8.19381 37.1807C7.63186 36.2974 7.18459 35.108 6.67998 33.1768C6.31299 31.7872 6.29006 31.5987 6.29006 29.7617C6.29006 27.8304 6.5997 25.3338 6.8176 25.4633C6.86348 25.4987 6.93229 25.4751 6.97816 25.4162C7.01257 25.3574 7.9071 24.6626 8.9622 23.8853C10.0173 23.1081 11.1641 22.2367 11.5082 21.9423C11.8522 21.6596 12.1963 21.4123 12.2766 21.4123C12.3454 21.4006 13.2973 21.5301 14.3868 21.695ZM33.9977 23.7794C33.9289 24.7097 33.8486 27.3593 33.8028 29.6674L33.7225 33.8715L33.1605 34.0011C32.8509 34.06 32.5527 34.0953 32.5068 34.0717C32.461 34.0364 31.8875 34.0717 31.2338 34.1306C30.5687 34.1895 29.6397 34.2013 29.1695 34.166L28.3094 34.0953V32.482C28.3094 31.269 28.2635 30.7391 28.103 30.2916C27.8507 29.5261 27.3002 28.8431 26.7382 28.584C26.1648 28.325 25.0294 28.3485 24.4101 28.6429C24.1578 28.7607 23.8826 28.8667 23.7908 28.8902C23.6991 28.902 23.5844 28.9962 23.5385 29.0786C23.4812 29.1611 23.4353 29.1728 23.4353 29.114C23.4353 29.0433 23.3665 29.0786 23.2862 29.1846C23.206 29.2788 23.0569 29.3966 22.9537 29.4437C22.8504 29.479 22.5981 29.797 22.4146 30.1385C22.1165 30.6684 22.0591 30.8922 22.0591 31.5752C22.0591 32.0227 22.1623 32.8588 22.3 33.4358C22.4376 34.0129 22.5179 34.5192 22.4834 34.5546C22.449 34.5899 22.0935 34.6252 21.6921 34.637L20.9696 34.6488L20.7747 33.6478C20.465 32.1404 19.6508 28.9727 19.3526 28.1601L19.0888 27.43L19.6278 27.6066C21.2563 28.113 22.8619 26.9 22.8619 25.1454C22.8619 23.5909 21.9559 22.59 20.465 22.5193C19.8342 22.4957 18.9626 22.7313 18.9626 22.9432C18.9626 23.0021 18.8824 23.0492 18.7906 23.0492C18.6989 23.0492 18.5039 23.2376 18.3548 23.4614L18.0796 23.8736L17.942 23.1905C17.8617 22.8255 17.7699 22.4251 17.7355 22.2956C17.6897 22.1189 17.7241 22.0954 18.0108 22.1542C19.4673 22.4604 25.4538 22.4486 32.3233 22.1307C33.2752 22.0836 34.0665 22.0483 34.078 22.06C34.1009 22.0836 34.0665 22.849 33.9977 23.7794ZM26.2336 31.6458C26.463 32.0462 27.1167 34.1424 27.0364 34.2248C27.0135 34.2484 26.6235 34.2955 26.1648 34.3073C25.7175 34.3308 25.2473 34.3779 25.1326 34.425C24.9492 34.4839 24.9262 34.4015 24.9262 33.4358C24.9262 31.9756 25.0065 31.6694 25.4308 31.3985C25.8666 31.1277 25.9584 31.1512 26.2336 31.6458Z" fill="#3F3D56"/>
<path d="M28.6993 22.8961C28.4929 22.9903 28.2865 23.0963 28.2521 23.1434C28.2176 23.1905 28.0915 23.2847 27.9653 23.3554C27.8392 23.426 27.5984 23.7676 27.4263 24.1091C26.8414 25.2396 27.0708 26.4879 28.0227 27.3122C28.9287 28.1247 30.2017 28.1601 31.2109 27.4064C32.4724 26.4761 32.5068 24.321 31.2912 23.3201C31.0733 23.1434 30.8554 23.0021 30.8095 23.0139C30.7522 23.0257 30.6489 22.9785 30.5687 22.9079C30.3508 22.7195 29.1351 22.7077 28.6993 22.8961Z" fill="#3F3D56"/>
</svg>
